<svg xmlns="http://www.w3.org/2000/svg" xmlns:xlink="http://www.w3.org/1999/xlink" width="108" height="54" viewBox="0 0 108 54">
  <defs>
    <clipPath id="clip-path">
      <rect id="Rectangle_52850" data-name="Rectangle 52850" width="108" height="54" transform="translate(1210 7033)" fill="#fff" stroke="#707070" stroke-width="1"/>
    </clipPath>
  </defs>
  <g id="business_insider" transform="translate(-1210 -7033)" opacity="0.44" clip-path="url(#clip-path)">
    <g id="Group_106168" data-name="Group 106168" transform="translate(1213.24 7039.48)">
      <path id="Path_171627" data-name="Path 171627" d="M7.894,8.657a3.212,3.212,0,0,0-1.857-.54c-.4-.017-.625-.017-.961-.017-.09,0-.134.044-.134.157v5.3c0,1.476.067,1.857.783,2.147a4.025,4.025,0,0,0,1.632.269,2.6,2.6,0,0,0,2.706-2.863A5.325,5.325,0,0,0,7.894,8.657ZM4.942,6.868c0,.179.067.224.157.246a5.445,5.445,0,0,0,1.051.067,2.268,2.268,0,0,0,1.61-.424,2.916,2.916,0,0,0,.917-2.371c0-1.5-.873-3.467-2.8-3.467a3.617,3.617,0,0,0-.738.044c-.157.044-.2.134-.2.38V6.868Zm-2.684-.38c0-3.4,0-4.025-.044-4.741C2.169.986,1.99.629,1.253.472A4.606,4.606,0,0,0,.38.4C.134.405,0,.36,0,.2S.157,0,.492,0C1.68,0,3.084.067,3.534.067,4.629.069,5.5,0,6.264,0c4.048,0,4.763,2.169,4.763,3.354A4.866,4.866,0,0,1,8.748,7.271c1.836.626,4.069,2.214,4.069,4.831,0,2.393-1.857,4.875-5.971,4.875-.268,0-.917-.044-1.565-.067-.671-.044-1.341-.067-1.677-.067-.246,0-.738,0-1.274.023-.514,0-1.1.044-1.543.044-.291,0-.447-.067-.447-.224,0-.108.09-.179.357-.179a3.656,3.656,0,0,0,.8-.09c.447-.09.559-.581.648-1.23.108-.94.108-2.706.108-4.763V6.488M15.832,8.031c0-2.885.023-3.421-.023-4.025-.044-.671-.224-.85-.85-1.028a3.529,3.529,0,0,0-.756-.067q-.336,0-.336-.2c0-.134.134-.179.424-.179,1.051,0,2.371.044,2.952.044.492,0,1.811-.044,2.527-.044.291,0,.424.044.424.179s-.108.2-.313.2a2.725,2.725,0,0,0-.581.067c-.514.09-.671.357-.716,1.028-.044.6-.044,1.14-.044,4.025v2.661c0,2.773.54,3.846,1.5,4.606a3.786,3.786,0,0,0,2.484.756,3.748,3.748,0,0,0,2.638-1.007c1.1-1.028,1.14-2.684,1.14-4.629V8.031c0-2.885-.023-3.421-.044-4.025-.044-.648-.2-.85-.827-1.028a3.374,3.374,0,0,0-.716-.067q-.336,0-.336-.2c0-.134.134-.179.4-.179,1.007,0,2.325.044,2.348.044.224,0,1.543-.044,2.3-.044.269,0,.4.044.4.179s-.108.2-.336.2a2.728,2.728,0,0,0-.581.067c-.54.09-.671.357-.716,1.028-.023.6-.044,1.14-.044,4.025v2.035c0,2.124-.224,4.361-1.878,5.724a6.133,6.133,0,0,1-4.159,1.364,6.8,6.8,0,0,1-4.495-1.3c-1.007-.873-1.79-2.281-1.79-5.032v-2.8m15.833,8.631c-.313-.134-.38-.224-.38-.648,0-1.029.09-2.214.108-2.527,0-.291.09-.492.246-.492.179,0,.2.179.2.313a3.539,3.539,0,0,0,.179.984,3.043,3.043,0,0,0,3.132,1.878,2.468,2.468,0,0,0,2.728-2.415c0-.827-.2-1.655-1.944-2.684L34.794,10.4c-2.325-1.364-3.086-2.638-3.086-4.32,0-2.325,2.237-3.824,4.968-3.824a11.678,11.678,0,0,1,2.8.313c.179.044.268.108.268.246,0,.246-.067.783-.067,2.281,0,.4-.09.6-.246.6q-.2,0-.2-.336a2.148,2.148,0,0,0-.514-1.253,2.644,2.644,0,0,0-2.191-.894c-1.4,0-2.684.738-2.684,2.035,0,.85.313,1.521,2.08,2.5l.8.451c2.592,1.431,3.4,2.885,3.4,4.607a4.063,4.063,0,0,1-1.968,3.555,5.735,5.735,0,0,1-3.288.782,8.358,8.358,0,0,1-3.2-.491m11.761-8.63c0-2.885,0-3.421-.023-4.025-.044-.648-.246-.873-.671-1.007a2.508,2.508,0,0,0-.716-.09c-.2,0-.313-.044-.313-.224,0-.108.157-.157.47-.157.738,0,2.08.044,2.638.044.492,0,1.767-.044,2.527-.044.246,0,.4.044.4.157,0,.179-.108.224-.313.224a2.719,2.719,0,0,0-.581.067c-.54.09-.693.357-.738,1.028-.044.6-.044,1.14-.044,4.025v3.354c0,1.836,0,3.354.09,4.16.067.514.2.8.783.894a7.329,7.329,0,0,0,1.007.067c.224,0,.313.108.313.2,0,.134-.157.2-.38.2-1.3,0-2.638-.067-3.175-.067-.447,0-1.788.067-2.571.067-.246,0-.38-.067-.38-.2,0-.09.067-.2.313-.2a2.885,2.885,0,0,0,.693-.067c.4-.09.514-.357.581-.917.09-.783.09-2.3.09-4.137V8.031m9.4,6.283c.044,1.476.291,1.923.671,2.057a3.348,3.348,0,0,0,1.028.134c.224,0,.336.09.336.2,0,.157-.179.2-.447.2-1.274,0-2.191-.067-2.55-.067-.179,0-1.118.067-2.124.067-.269,0-.447-.023-.447-.2,0-.108.134-.2.313-.2a4.058,4.058,0,0,0,.894-.09c.514-.134.581-.648.6-2.3l.179-11.271c0-.38.134-.648.336-.648.246,0,.514.291.85.626.246.246,3.2,3.265,6.06,6.06,1.342,1.32,3.958,4,4.249,4.271h.08l-.2-8.453c-.018-1.162-.2-1.5-.666-1.674a3.3,3.3,0,0,0-1.029-.108c-.246,0-.313-.09-.313-.2,0-.157.2-.179.492-.179,1.029,0,2.08.044,2.5.044.224,0,.961-.044,1.923-.044.269,0,.447.023.447.179,0,.108-.108.2-.336.2a2,2,0,0,0-.6.067c-.54.157-.693.492-.716,1.565l-.224,11.988c0,.424-.157.6-.313.6a1.17,1.17,0,0,1-.8-.4c-1.23-1.14-3.69-3.488-5.747-5.479C55.126,9.2,53.046,6.9,52.666,6.562H52.6l.224,7.76M69.452,8.038c0-2.885,0-3.421-.023-4.025-.044-.648-.224-.85-.85-1.028a3.611,3.611,0,0,0-.782-.067c-.2,0-.336-.067-.336-.2s.157-.179.447-.179c1.028,0,2.281.044,2.84.044.626,0,4.986.023,5.367,0,.357-.023.671-.09.827-.108a2.3,2.3,0,0,1,.313-.09c.108,0,.134.09.134.179a8.449,8.449,0,0,0-.151,1.216c-.023.2-.067,1.029-.108,1.253-.023.09-.067.313-.224.313-.134,0-.157-.09-.157-.246a1.786,1.786,0,0,0-.134-.693c-.157-.336-.313-.6-1.3-.693-.336-.045-2.684-.09-3.086-.09-.09,0-.134.067-.134.179V8.5c0,.108.023.2.134.2.447,0,3,0,3.444-.044.47-.045.756-.09.94-.291.157-.134.224-.246.313-.246a.18.18,0,0,1,.157.2c0,.108-.045.424-.157,1.387-.045.38-.09,1.14-.09,1.274,0,.157-.023.424-.2.424-.134,0-.179-.067-.179-.157-.023-.2-.023-.447-.067-.693-.108-.38-.357-.671-1.1-.738-.357-.045-2.592-.09-3.086-.09-.09,0-.108.09-.108.2v1.515c0,.648-.023,2.258,0,2.818.045,1.3.648,1.588,2.661,1.588a5.31,5.31,0,0,0,1.857-.246c.491-.224.715-.626.85-1.4.045-.2.09-.291.224-.291.157,0,.179.246.179.447a12.851,12.851,0,0,1-.269,2.1c-.134.491-.313.491-1.051.491-1.476,0-2.661-.023-3.622-.067-.961-.023-1.7-.045-2.281-.045-.224,0-.648.023-1.118.023-.47.023-.961.044-1.364.044-.246,0-.38-.067-.38-.2,0-.09.067-.2.313-.2a2.887,2.887,0,0,0,.693-.067c.4-.09.514-.447.581-1.007.09-.8.09-2.3.09-4.048V8.031m10.867,8.631c-.313-.134-.38-.224-.38-.648,0-1.029.09-2.214.108-2.527,0-.291.09-.492.246-.492.179,0,.2.179.2.313a3.544,3.544,0,0,0,.179.984,3.043,3.043,0,0,0,3.132,1.878,2.468,2.468,0,0,0,2.728-2.415c0-.827-.2-1.655-1.944-2.684L83.454,10.4c-2.325-1.364-3.087-2.638-3.087-4.32,0-2.325,2.237-3.824,4.968-3.824a11.678,11.678,0,0,1,2.8.313c.179.044.269.108.269.246,0,.246-.067.783-.067,2.281,0,.4-.09.6-.246.6q-.2,0-.2-.336a2.147,2.147,0,0,0-.514-1.253,2.644,2.644,0,0,0-2.191-.894c-1.4,0-2.684.738-2.684,2.035,0,.85.313,1.521,2.08,2.5l.8.447c2.592,1.431,3.4,2.885,3.4,4.607a4.063,4.063,0,0,1-1.968,3.555,5.735,5.735,0,0,1-3.288.782,8.357,8.357,0,0,1-3.2-.491m11.136,0c-.313-.134-.38-.224-.38-.648,0-1.029.09-2.214.108-2.527,0-.291.09-.492.246-.492.179,0,.2.179.2.313a3.544,3.544,0,0,0,.179.984,3.043,3.043,0,0,0,3.132,1.878,2.468,2.468,0,0,0,2.728-2.415c0-.827-.2-1.655-1.944-2.684L94.591,10.4c-2.326-1.364-3.086-2.638-3.086-4.32,0-2.325,2.237-3.824,4.968-3.824a11.682,11.682,0,0,1,2.8.313c.178.044.268.108.268.246,0,.246-.067.783-.067,2.281,0,.4-.09.6-.246.6q-.2,0-.2-.336a2.148,2.148,0,0,0-.514-1.253,2.644,2.644,0,0,0-2.191-.894c-1.4,0-2.684.738-2.684,2.035,0,.85.313,1.521,2.08,2.5l.8.447c2.592,1.431,3.4,2.885,3.4,4.607a4.063,4.063,0,0,1-1.968,3.555,5.735,5.735,0,0,1-3.288.782,8.357,8.357,0,0,1-3.2-.491M3.175,30.375c0-3.4,0-4.025-.044-4.741-.044-.756-.269-1.14-.756-1.253a3.17,3.17,0,0,0-.8-.09c-.224,0-.357-.044-.357-.224,0-.134.179-.179.54-.179.85,0,2.258.067,2.907.067.559,0,1.878-.067,2.728-.067.291,0,.47.044.47.179,0,.178-.134.224-.357.224a3.754,3.754,0,0,0-.671.067c-.6.108-.783.491-.827,1.274-.044.716-.044,1.341-.044,4.741v3.936c0,2.17,0,3.936.09,4.9.067.6.224,1.007.894,1.1a9.435,9.435,0,0,0,1.14.09c.246,0,.357.067.357.179,0,.157-.179.224-.424.224-1.476,0-2.885-.067-3.488-.067-.514,0-1.923.067-2.818.067-.291,0-.447-.067-.447-.224,0-.108.09-.179.357-.179a3.664,3.664,0,0,0,.806-.09c.447-.09.581-.47.648-1.118.108-.939.108-2.706.108-4.875V30.375M14.564,38.2c.044,1.476.291,1.923.671,2.057a3.342,3.342,0,0,0,1.028.134c.224,0,.336.09.336.2,0,.157-.179.2-.447.2-1.274,0-2.191-.067-2.55-.067-.179,0-1.118.067-2.124.067-.269,0-.447-.023-.447-.2,0-.108.134-.2.313-.2a4.054,4.054,0,0,0,.894-.09c.514-.134.581-.648.6-2.3l.179-11.271c0-.38.134-.648.336-.648.246,0,.514.291.85.626.246.246,3.2,3.265,6.06,6.06,1.334,1.32,3.952,4,4.243,4.277h.09l-.2-8.453c-.023-1.163-.2-1.5-.671-1.677a3.31,3.31,0,0,0-1.029-.108c-.246,0-.313-.09-.313-.2,0-.157.2-.179.492-.179,1.029,0,2.08.045,2.5.045.224,0,.961-.045,1.923-.045.268,0,.447.023.447.179,0,.108-.108.2-.336.2a2,2,0,0,0-.6.067c-.54.157-.693.492-.716,1.565l-.224,11.988c0,.424-.157.6-.313.6a1.169,1.169,0,0,1-.806-.4c-1.23-1.14-3.69-3.488-5.747-5.479-2.147-2.052-4.226-4.361-4.607-4.7h-.067l.224,7.76M32,40.559c-.313-.134-.38-.224-.38-.648,0-1.028.09-2.214.108-2.527,0-.291.09-.492.246-.492.179,0,.2.179.2.313a3.543,3.543,0,0,0,.179.984,3.043,3.043,0,0,0,3.132,1.878,2.468,2.468,0,0,0,2.728-2.415c0-.827-.2-1.655-1.944-2.684l-1.14-.671c-2.325-1.364-3.086-2.638-3.086-4.32,0-2.325,2.237-3.824,4.968-3.824a11.664,11.664,0,0,1,2.8.313c.179.044.269.108.269.246,0,.246-.067.783-.067,2.281,0,.4-.09.6-.246.6q-.2,0-.2-.336a2.147,2.147,0,0,0-.514-1.253,2.644,2.644,0,0,0-2.191-.894c-1.4,0-2.684.738-2.684,2.035,0,.85.313,1.521,2.079,2.5l.806.447c2.592,1.431,3.4,2.885,3.4,4.606a4.062,4.062,0,0,1-1.968,3.555,5.737,5.737,0,0,1-3.291.778,8.364,8.364,0,0,1-3.2-.491m13.641-8.63c0-2.885,0-3.421-.023-4.025-.044-.648-.246-.873-.671-1.007a2.512,2.512,0,0,0-.716-.09c-.2,0-.313-.045-.313-.224,0-.108.157-.157.47-.157.738,0,2.08.045,2.638.045.492,0,1.767-.045,2.527-.045.246,0,.4.045.4.157,0,.179-.108.224-.313.224a2.736,2.736,0,0,0-.581.067c-.54.09-.693.357-.738,1.029-.044.6-.044,1.14-.044,4.025v3.354c0,1.836,0,3.354.09,4.159.067.514.2.8.783.894a7.331,7.331,0,0,0,1.007.067c.224,0,.313.108.313.2,0,.134-.157.2-.38.2-1.3,0-2.638-.067-3.175-.067-.447,0-1.788.067-2.571.067-.246,0-.38-.067-.38-.2,0-.09.067-.2.313-.2a2.886,2.886,0,0,0,.693-.067c.4-.09.514-.357.581-.917.09-.783.09-2.3.09-4.137V31.918m12.677,2.1c0,2.013.023,3.467.044,3.847a3.469,3.469,0,0,0,.224,1.341c.246.357,1.028.756,2.571.756a6.2,6.2,0,0,0,4.294-1.3c1.274-1.051,1.677-2.751,1.677-4.719a6.187,6.187,0,0,0-1.836-4.741,7.937,7.937,0,0,0-5.5-1.811,4.175,4.175,0,0,0-1.207.134.334.334,0,0,0-.246.38c-.019.652-.019,2.22-.019,3.716Zm-2.638-2.1c0-2.885,0-3.421-.023-4.025-.044-.648-.224-.85-.85-1.029a3.635,3.635,0,0,0-.783-.067c-.2,0-.336-.067-.336-.2s.157-.179.447-.179c1.029,0,2.281.045,2.84.045.6,0,2.013-.045,3.2-.045,2.46,0,5.769,0,7.916,2.17a6.658,6.658,0,0,1,1.857,4.831,7.371,7.371,0,0,1-2.147,5.3,9.18,9.18,0,0,1-6.6,2.236c-.716,0-1.565-.067-2.348-.108-.783-.067-1.5-.108-1.99-.108-.224,0-.648.023-1.118.023-.47.023-.961.044-1.364.044-.246,0-.38-.067-.38-.2,0-.09.067-.2.313-.2a2.888,2.888,0,0,0,.693-.067c.4-.09.514-.447.581-1.007.09-.8.09-2.3.09-4.048V31.918m19.3,0c0-2.885,0-3.421-.023-4.025-.044-.648-.224-.85-.85-1.029a3.632,3.632,0,0,0-.783-.067c-.2,0-.336-.067-.336-.2s.157-.179.447-.179c1.029,0,2.281.045,2.84.045.626,0,4.986.023,5.367,0,.357-.023.671-.09.827-.108a2.268,2.268,0,0,1,.313-.09c.108,0,.134.09.134.179a8.444,8.444,0,0,0-.157,1.23c-.023.2-.067,1.028-.108,1.252-.023.09-.067.313-.224.313-.134,0-.157-.09-.157-.246a1.79,1.79,0,0,0-.134-.693c-.157-.336-.313-.6-1.3-.693-.336-.044-2.684-.09-3.086-.09-.09,0-.134.067-.134.179v4.7c0,.108.023.2.134.2.447,0,3,0,3.444-.044.47-.044.756-.09.94-.291.157-.134.224-.246.313-.246a.18.18,0,0,1,.157.2c0,.108-.045.424-.157,1.387-.045.38-.09,1.14-.09,1.274,0,.157-.023.424-.2.424-.134,0-.179-.067-.179-.157-.023-.2-.023-.447-.067-.693-.108-.38-.357-.671-1.1-.738-.357-.044-2.592-.09-3.086-.09-.09,0-.108.09-.108.2v1.521c0,.648-.023,2.258,0,2.818.045,1.3.648,1.588,2.661,1.588a5.309,5.309,0,0,0,1.857-.246c.492-.224.716-.626.85-1.4.045-.2.09-.291.224-.291.157,0,.179.246.179.447a12.838,12.838,0,0,1-.269,2.1c-.134.492-.313.492-1.051.492-1.476,0-2.661-.023-3.622-.067-.961-.023-1.7-.044-2.281-.044-.224,0-.648.023-1.118.023-.47.023-.961.044-1.364.044-.245,0-.38-.067-.38-.2,0-.09.067-.2.313-.2a2.886,2.886,0,0,0,.693-.067c.4-.09.514-.447.581-1.007.09-.8.09-2.3.09-4.048v-3.36m15.876,1.476c0,.2.044.268.179.336a5.392,5.392,0,0,0,1.5.179A1.976,1.976,0,0,0,93.93,33.6,3.214,3.214,0,0,0,95.2,30.779c0-2.684-1.836-3.377-3-3.377a7.106,7.106,0,0,0-1.163.067c-.134.044-.179.108-.179.268v5.658Zm-2.5-1.476c0-2.885,0-3.421-.023-4.025-.044-.648-.224-.85-.85-1.029a3.63,3.63,0,0,0-.782-.067c-.2,0-.336-.067-.336-.2s.157-.179.447-.179c1.028,0,2.281.045,2.684.045.671,0,2.46-.045,3.064-.045a6.891,6.891,0,0,1,3.735.806,3.321,3.321,0,0,1,1.387,2.617c0,1.4-.806,2.661-2.728,4.2,1.744,2.147,3.132,3.869,4.32,5.054a3.69,3.69,0,0,0,2.1,1.252,1.836,1.836,0,0,0,.47.044.228.228,0,0,1,.246.2c0,.157-.134.2-.38.2H99.824a4.265,4.265,0,0,1-2.147-.38,8.908,8.908,0,0,1-2.684-2.8c-.783-1.029-1.61-2.3-1.857-2.592a.454.454,0,0,0-.357-.134l-1.767-.044a.141.141,0,0,0-.157.157v.268c0,1.767.023,3.24.108,4.048.067.559.157.917.756,1.007a7.428,7.428,0,0,0,.961.067.228.228,0,0,1,.246.2c0,.134-.157.2-.4.2-1.14,0-2.773-.067-3.064-.067-.38,0-1.633.067-2.415.067-.246,0-.38-.067-.38-.2,0-.09.067-.2.313-.2a2.886,2.886,0,0,0,.693-.067c.4-.09.514-.447.581-1.007.09-.8.09-2.3.09-4.048V31.918" transform="translate(0 0)" fill="#323a45"/>
    </g>
  </g>
</svg>
