<svg xmlns="http://www.w3.org/2000/svg" xmlns:xlink="http://www.w3.org/1999/xlink" width="83" height="42" viewBox="0 0 83 42">
  <defs>
    <clipPath id="clip-path">
      <rect id="Rectangle_53021" data-name="Rectangle 53021" width="83" height="42" transform="translate(0.109)" fill="#fff" stroke="#707070" stroke-width="1"/>
    </clipPath>
  </defs>
  <g id="yahoo_finance" transform="translate(-0.109)" opacity="0.44" clip-path="url(#clip-path)">
    <g id="hubspot" transform="translate(0.393 8.777)">
      <path id="Path_171747" data-name="Path 171747" d="M.06,27.679H2.944v6.408H9.027V27.679h2.888v15.73H9.027V36.866H2.944v6.543H.06ZM21.053,38.285a2.389,2.389,0,0,1-4.778,0V31.513H13.539v6.772a5.124,5.124,0,0,0,10.248,0V31.513H21.053v6.772m10.37-6.693A4.2,4.2,0,0,0,28.2,32.884v-5.2H25.46v9.646A5.757,5.757,0,0,0,31,43.409,6.007,6.007,0,0,0,37.121,37.5,5.805,5.805,0,0,0,31.423,31.592Zm.068,9.278a3.371,3.371,0,0,1,0-6.739,3.393,3.393,0,0,1,0,6.739ZM41.73,32.284a1.693,1.693,0,0,1,1.925-1.817,4.11,4.11,0,0,1,2.582,1.357l1.794-2.1a5.667,5.667,0,0,0-4.2-2.035c-2.976,0-5.121,1.729-5.121,4.6,0,5.317,6.543,3.632,6.543,6.608a1.883,1.883,0,0,1-1.925,1.728c-1.62,0-2.145-.788-2.889-1.62l-1.992,2.057A5.884,5.884,0,0,0,43.174,43.4c2.823,0,5.1-1.751,5.1-4.486,0-5.908-6.543-4.069-6.543-6.629M55.5,31.438a5.757,5.757,0,0,0-5.543,6.083v9.671H52.7v-5.23a4.206,4.206,0,0,0,3.219,1.292,5.805,5.805,0,0,0,5.7-5.908A6.007,6.007,0,0,0,55.5,31.438Zm.488,9.278a3.371,3.371,0,0,1,0-6.74,3.393,3.393,0,0,1,0,6.74Zm25.829.154c-1.619,0-2.078-.7-2.078-1.773V34.349h2.516V31.943H79.735V28.77l-2.778,1.247v9.672c0,2.473,1.706,3.72,4.046,3.72a5.619,5.619,0,0,0,1.095-.087l.678-2.494c-.306.021-.656.043-.964.043" transform="translate(-0.06 -23.207)" fill="#323a45"/>
      <path id="Path_171748" data-name="Path 171748" d="M354.379,11.284a6.035,6.035,0,0,0-2.191-2.177,5.883,5.883,0,0,0-2.216-.768V5.464a2.123,2.123,0,0,0,1.309-1.988,2.183,2.183,0,1,0-4.367,0,2.1,2.1,0,0,0,1.28,1.988V8.341a6.328,6.328,0,0,0-1.928.6c-1.25-.949-5.349-4.064-7.747-5.883a2.378,2.378,0,0,0,.1-.639,2.441,2.441,0,1,0-1.177,2.068l.506.384,6.953,5.01a5.829,5.829,0,0,0-.984,1.152,5.376,5.376,0,0,0-.894,2.9v.22a6.074,6.074,0,0,0,.38,2.094,5.5,5.5,0,0,0,.9,1.565L342,20.127a1.864,1.864,0,1,0,1.143,1.193l2.385-2.385a6.13,6.13,0,0,0,1.06.58,6.2,6.2,0,0,0,2.48.521h.166a5.939,5.939,0,0,0,5.049-2.8,5.479,5.479,0,0,0,.861-2.952v-.054a5.787,5.787,0,0,0-.763-2.942Zm-2.914,5a3.033,3.033,0,0,1-2.233,1.163h-.139a3.018,3.018,0,0,1-1.411-.374,3.26,3.26,0,0,1-1.235-1.126,2.625,2.625,0,0,1-.514-1.532v-.166a3.138,3.138,0,0,1,.362-1.526,3.3,3.3,0,0,1,1.15-1.258,2.816,2.816,0,0,1,1.594-.481h.054a3.23,3.23,0,0,1,1.5.345,3.175,3.175,0,0,1,1.177,1.071,3.405,3.405,0,0,1,.528,1.5c.009.113.013.229.013.339a2.976,2.976,0,0,1-.845,2.04Z" transform="translate(-279.863 -0.002)" fill="#323a45"/>
    </g>
  </g>
</svg>
