<svg xmlns="http://www.w3.org/2000/svg" width="95.857" height="23.964" viewBox="0 0 95.857 23.964"><defs><style>.a{fill:#191919;}.b{fill:#00b67a;}.c{fill:#005128;}</style></defs><path class="a" d="M297.609,98.6h9.7v1.843H303.5v10.363h-2.1V100.443h-3.8V98.6Zm9.289,3.368h1.794v1.706h.034a2.025,2.025,0,0,1,.33-.7A3.168,3.168,0,0,1,310.4,101.9a2.294,2.294,0,0,1,.854-.172c.22,0,.381.009.465.017s.169.026.262.034v1.878c-.135-.026-.271-.043-.415-.06a3.438,3.438,0,0,0-.414-.026,2.209,2.209,0,0,0-.914.2,2.109,2.109,0,0,0-.744.577,2.943,2.943,0,0,0-.508.948,4.078,4.078,0,0,0-.186,1.3v4.2H306.89v-8.829Zm13.875,8.838H318.9v-1.232h-.034a2.633,2.633,0,0,1-1.049,1.068,2.831,2.831,0,0,1-1.421.4,3.15,3.15,0,0,1-2.479-.861,3.857,3.857,0,0,1-.761-2.61v-5.608h1.912v5.418a2.412,2.412,0,0,0,.44,1.645,1.578,1.578,0,0,0,1.227.482,2.316,2.316,0,0,0,1.007-.189,1.7,1.7,0,0,0,.651-.508,1.964,1.964,0,0,0,.364-.758,3.792,3.792,0,0,0,.11-.956v-5.125h1.912Zm3.257-2.834a1.506,1.506,0,0,0,.635,1.2,2.524,2.524,0,0,0,1.328.345,5.58,5.58,0,0,0,.609-.043,2.522,2.522,0,0,0,.643-.164,1.236,1.236,0,0,0,.5-.353.866.866,0,0,0,.178-.6.839.839,0,0,0-.271-.612,1.9,1.9,0,0,0-.643-.388,6.363,6.363,0,0,0-.9-.25c-.338-.069-.677-.146-1.024-.224a9.58,9.58,0,0,1-1.032-.293,3.13,3.13,0,0,1-.888-.465,2.035,2.035,0,0,1-.626-.741,2.35,2.35,0,0,1-.237-1.12,2.044,2.044,0,0,1,.347-1.206,2.644,2.644,0,0,1,.871-.784,3.991,3.991,0,0,1,1.176-.422,7.036,7.036,0,0,1,1.235-.121,5.661,5.661,0,0,1,1.286.146,3.285,3.285,0,0,1,1.108.474,2.766,2.766,0,0,1,.821.844,2.974,2.974,0,0,1,.415,1.258h-2a1.212,1.212,0,0,0-.626-.939,2.525,2.525,0,0,0-1.134-.241,3.493,3.493,0,0,0-.482.034,2.6,2.6,0,0,0-.524.129,1.135,1.135,0,0,0-.415.276.673.673,0,0,0-.169.474.742.742,0,0,0,.245.577,2.042,2.042,0,0,0,.635.37,6.358,6.358,0,0,0,.9.25c.338.069.685.146,1.04.224s.685.181,1.024.293a3.072,3.072,0,0,1,.9.465,2.14,2.14,0,0,1,.88,1.826,2.412,2.412,0,0,1-.355,1.335,2.835,2.835,0,0,1-.914.887,4.251,4.251,0,0,1-1.252.5,6.175,6.175,0,0,1-1.362.155,5.682,5.682,0,0,1-1.523-.19,3.678,3.678,0,0,1-1.21-.569,2.807,2.807,0,0,1-.8-.956,3.184,3.184,0,0,1-.313-1.361h1.929Zm6.312-6h1.447V99.315H333.7v2.653h1.726v1.456H333.7v4.72a4.9,4.9,0,0,0,.025.534,1,1,0,0,0,.118.379.546.546,0,0,0,.279.233,1.341,1.341,0,0,0,.508.078c.135,0,.271,0,.406-.009a2.2,2.2,0,0,0,.406-.06v1.507c-.211.026-.423.043-.617.069a4.856,4.856,0,0,1-.618.034,4.208,4.208,0,0,1-1.218-.146,1.575,1.575,0,0,1-.719-.431,1.5,1.5,0,0,1-.355-.706,5.408,5.408,0,0,1-.11-.973v-5.211h-1.447v-1.473Zm6.438,0h1.811v1.2h.034a2.382,2.382,0,0,1,1.125-1.1,3.652,3.652,0,0,1,1.565-.336,3.99,3.99,0,0,1,1.785.37,3.5,3.5,0,0,1,1.269,1.008,4.439,4.439,0,0,1,.753,1.5,6.381,6.381,0,0,1,.254,1.826,6.461,6.461,0,0,1-.228,1.723,4.65,4.65,0,0,1-.685,1.482,3.352,3.352,0,0,1-2.834,1.413,4.594,4.594,0,0,1-.838-.078,3.636,3.636,0,0,1-.8-.25,2.892,2.892,0,0,1-.711-.439,2.712,2.712,0,0,1-.55-.62h-.034v4.41h-1.912Zm6.684,4.428a4.47,4.47,0,0,0-.152-1.163,3.159,3.159,0,0,0-.457-1,2.343,2.343,0,0,0-.753-.7,2.294,2.294,0,0,0-2.86.586,3.835,3.835,0,0,0-.609,2.274,4.434,4.434,0,0,0,.161,1.24,2.788,2.788,0,0,0,.482.982,2.294,2.294,0,0,0,.761.646,2.348,2.348,0,0,0,2.14-.034,2.357,2.357,0,0,0,.744-.706,2.962,2.962,0,0,0,.423-.991A5.634,5.634,0,0,0,343.464,106.4Zm3.376-7.8h1.912v1.843H346.84Zm0,3.368h1.912v8.838H346.84Zm3.621-3.368h1.912v12.206h-1.912Zm7.775,12.447a4.655,4.655,0,0,1-1.853-.353,4.09,4.09,0,0,1-1.379-.965,4.216,4.216,0,0,1-.854-1.473,5.779,5.779,0,0,1-.3-1.878,5.711,5.711,0,0,1,.3-1.861,4.217,4.217,0,0,1,.854-1.473,3.9,3.9,0,0,1,1.379-.965,5.037,5.037,0,0,1,3.706,0,4.09,4.09,0,0,1,1.379.965,4.217,4.217,0,0,1,.854,1.473,5.711,5.711,0,0,1,.3,1.861,5.779,5.779,0,0,1-.3,1.878,4.217,4.217,0,0,1-.854,1.473,3.9,3.9,0,0,1-1.379.965A4.655,4.655,0,0,1,358.236,111.047Zm0-1.542a2.185,2.185,0,0,0,1.108-.276,2.375,2.375,0,0,0,.77-.715,3.238,3.238,0,0,0,.448-1,4.533,4.533,0,0,0,0-2.266,2.975,2.975,0,0,0-.448-1,2.349,2.349,0,0,0-.77-.706,2.366,2.366,0,0,0-2.217,0,2.447,2.447,0,0,0-.77.706,3.152,3.152,0,0,0-.448,1,4.536,4.536,0,0,0,0,2.266,3.054,3.054,0,0,0,.448,1,2.376,2.376,0,0,0,.77.715A2.1,2.1,0,0,0,358.236,109.505Zm4.941-7.537h1.447V99.315h1.912v2.653h1.726v1.456h-1.726v4.72a4.9,4.9,0,0,0,.026.534.992.992,0,0,0,.118.379.544.544,0,0,0,.279.233,1.341,1.341,0,0,0,.508.078c.135,0,.271,0,.406-.009a2.2,2.2,0,0,0,.406-.06v1.507c-.211.026-.423.043-.617.069a4.859,4.859,0,0,1-.618.034,4.207,4.207,0,0,1-1.218-.146,1.576,1.576,0,0,1-.719-.431,1.505,1.505,0,0,1-.355-.706,5.388,5.388,0,0,1-.11-.973v-5.211h-1.447v-1.473Z" transform="translate(-272.422 -90.106)"/><path class="b" d="M22.953,8.493H14.188L11.481,0,8.765,8.493,0,8.485l7.1,5.255L4.383,22.224l7.1-5.246,7.09,5.246-2.707-8.485Z"/><path class="c" d="M140.692,161.421l-.609-1.921-4.383,3.239Z" transform="translate(-124.219 -145.761)"/></svg>