<svg xmlns="http://www.w3.org/2000/svg" width="132.088" height="21.088" viewBox="0 0 132.088 21.088">
  <g id="Group_105051" data-name="Group 105051" transform="translate(-481.605 -586.912)">
    <path id="Path_171172" data-name="Path 171172" d="M11.592,3.677H9.047L7.62-1.888q-.079-.3-.27-1.228t-.22-1.25q-.043.391-.216,1.257T6.646-1.874l-1.42,5.55H2.689L0-6.917H2.2L3.547-1.134q.353,1.6.512,2.775.043-.413.2-1.279T4.549-.982L6.084-6.917H8.2L9.732-.982q.1.4.252,1.217t.231,1.406q.072-.565.231-1.409t.288-1.366l1.341-5.782h2.2ZM16.883-.388a3.414,3.414,0,0,0,.393,1.819,1.4,1.4,0,0,0,1.28.616,1.38,1.38,0,0,0,1.265-.612,3.463,3.463,0,0,0,.386-1.822,3.36,3.36,0,0,0-.389-1.8,1.4,1.4,0,0,0-1.276-.6,1.4,1.4,0,0,0-1.269.6A3.357,3.357,0,0,0,16.883-.388Zm5.572,0a4.367,4.367,0,0,1-1.038,3.094,3.754,3.754,0,0,1-2.891,1.116,4.027,4.027,0,0,1-2.047-.511,3.392,3.392,0,0,1-1.362-1.467,4.952,4.952,0,0,1-.476-2.232,4.343,4.343,0,0,1,1.031-3.087,3.775,3.775,0,0,1,2.9-1.1,4.05,4.05,0,0,1,2.047.507A3.378,3.378,0,0,1,21.98-2.613,4.906,4.906,0,0,1,22.455-.388ZM28.77-4.576a3.528,3.528,0,0,1,.742.065l-.166,2.072a2.507,2.507,0,0,0-.649-.072,2.324,2.324,0,0,0-1.64.543,1.97,1.97,0,0,0-.588,1.522V3.677h-2.2v-8.1h1.665l.324,1.362h.108a3.039,3.039,0,0,1,1.013-1.1A2.488,2.488,0,0,1,28.77-4.576Zm4.462,8.4A2.613,2.613,0,0,1,31,2.713,5.116,5.116,0,0,1,30.19-.359a5.121,5.121,0,0,1,.825-3.1A2.676,2.676,0,0,1,33.29-4.576a2.625,2.625,0,0,1,2.321,1.188h.072A9.08,9.08,0,0,1,35.518-5V-7.6h2.206V3.677H36.037l-.425-1.051h-.094A2.513,2.513,0,0,1,33.232,3.822ZM34,2.061a1.486,1.486,0,0,0,1.236-.493,2.877,2.877,0,0,0,.429-1.674V-.345a3.326,3.326,0,0,0-.4-1.869,1.483,1.483,0,0,0-1.3-.565,1.289,1.289,0,0,0-1.143.627A3.358,3.358,0,0,0,32.418-.33a3.182,3.182,0,0,0,.411,1.793A1.34,1.34,0,0,0,34,2.061Zm8.427-3.992h.735a2.44,2.44,0,0,0,1.543-.409,1.436,1.436,0,0,0,.512-1.192A1.473,1.473,0,0,0,44.792-4.7a2,2,0,0,0-1.344-.377H42.431Zm5.046-1.681A3.246,3.246,0,0,1,46.414-1a4.532,4.532,0,0,1-3.024.906h-.959V3.677H40.2V-6.917h3.367a4.462,4.462,0,0,1,2.916.83A3.033,3.033,0,0,1,47.477-3.612Zm6.315-.964a3.528,3.528,0,0,1,.743.065l-.166,2.072a2.506,2.506,0,0,0-.649-.072,2.324,2.324,0,0,0-1.64.543,1.97,1.97,0,0,0-.588,1.522V3.677h-2.2v-8.1h1.665l.324,1.362h.108A3.039,3.039,0,0,1,52.4-4.16,2.488,2.488,0,0,1,53.792-4.576ZM59.04-3a1.391,1.391,0,0,0-1.1.446,2.069,2.069,0,0,0-.454,1.264h3.085a1.848,1.848,0,0,0-.425-1.264A1.436,1.436,0,0,0,59.04-3Zm.31,6.826a4.147,4.147,0,0,1-3.042-1.08,4.1,4.1,0,0,1-1.1-3.058,4.511,4.511,0,0,1,1.013-3.148,3.6,3.6,0,0,1,2.8-1.112,3.54,3.54,0,0,1,2.66.978,3.712,3.712,0,0,1,.952,2.7V.177h-5.2a2.133,2.133,0,0,0,.555,1.471,1.947,1.947,0,0,0,1.456.529,6.016,6.016,0,0,0,1.377-.152,6.867,6.867,0,0,0,1.355-.485v1.71a5.145,5.145,0,0,1-1.233.431A7.734,7.734,0,0,1,59.35,3.822Zm10.7-2.551a2.235,2.235,0,0,1-.861,1.9,4.24,4.24,0,0,1-2.577.652,8.054,8.054,0,0,1-1.5-.12,5.65,5.65,0,0,1-1.161-.351V1.525a7.638,7.638,0,0,0,1.38.485,5.563,5.563,0,0,0,1.352.2q1.2,0,1.2-.7a.582.582,0,0,0-.159-.424,2.3,2.3,0,0,0-.548-.37Q66.782.51,66.133.235A6.51,6.51,0,0,1,64.767-.49a2.037,2.037,0,0,1-.634-.764,2.535,2.535,0,0,1-.2-1.062,1.927,1.927,0,0,1,.833-1.67,4.04,4.04,0,0,1,2.361-.591,6.673,6.673,0,0,1,2.833.638L69.3-2.344q-.606-.261-1.132-.427a3.537,3.537,0,0,0-1.074-.167q-.973,0-.973.529a.622.622,0,0,0,.314.514,8.509,8.509,0,0,0,1.373.645,6.368,6.368,0,0,1,1.384.717,2.119,2.119,0,0,1,.649.768A2.37,2.37,0,0,1,70.048,1.271Zm7.339,0a2.235,2.235,0,0,1-.861,1.9,4.24,4.24,0,0,1-2.577.652,8.054,8.054,0,0,1-1.5-.12,5.65,5.65,0,0,1-1.161-.351V1.525a7.638,7.638,0,0,0,1.38.485,5.563,5.563,0,0,0,1.352.2q1.2,0,1.2-.7a.582.582,0,0,0-.159-.424,2.3,2.3,0,0,0-.548-.37Q74.121.51,73.472.235A6.51,6.51,0,0,1,72.106-.49a2.037,2.037,0,0,1-.634-.764,2.535,2.535,0,0,1-.2-1.062,1.927,1.927,0,0,1,.833-1.67,4.04,4.04,0,0,1,2.361-.591,6.673,6.673,0,0,1,2.833.638l-.663,1.594q-.606-.261-1.132-.427a3.537,3.537,0,0,0-1.074-.167q-.973,0-.973.529a.622.622,0,0,0,.314.514,8.509,8.509,0,0,0,1.373.645,6.368,6.368,0,0,1,1.384.717,2.119,2.119,0,0,1,.649.768A2.37,2.37,0,0,1,77.386,1.271Zm1.406,1.369a1.218,1.218,0,0,1,.324-.92,1.311,1.311,0,0,1,.944-.312,1.274,1.274,0,0,1,.926.319,1.215,1.215,0,0,1,.328.913,1.215,1.215,0,0,1-.332.9,1.251,1.251,0,0,1-.923.33,1.289,1.289,0,0,1-.937-.322A1.21,1.21,0,0,1,78.792,2.641ZM85.063-.388a3.414,3.414,0,0,0,.393,1.819,1.4,1.4,0,0,0,1.28.616A1.38,1.38,0,0,0,88,1.434a3.464,3.464,0,0,0,.386-1.822A3.36,3.36,0,0,0,88-2.192a1.405,1.405,0,0,0-1.276-.6,1.4,1.4,0,0,0-1.269.6A3.357,3.357,0,0,0,85.063-.388Zm5.572,0A4.367,4.367,0,0,1,89.6,2.706a3.754,3.754,0,0,1-2.891,1.116,4.027,4.027,0,0,1-2.047-.511A3.392,3.392,0,0,1,83.3,1.844a4.952,4.952,0,0,1-.476-2.232,4.343,4.343,0,0,1,1.031-3.087,3.775,3.775,0,0,1,2.9-1.1,4.05,4.05,0,0,1,2.047.507A3.378,3.378,0,0,1,90.16-2.613,4.906,4.906,0,0,1,90.636-.388Zm6.315-4.188a3.528,3.528,0,0,1,.743.065l-.166,2.072a2.507,2.507,0,0,0-.649-.072,2.324,2.324,0,0,0-1.64.543,1.97,1.97,0,0,0-.588,1.522V3.677h-2.2v-8.1h1.665l.324,1.362h.108a3.039,3.039,0,0,1,1.013-1.1A2.488,2.488,0,0,1,96.951-4.576Zm9.076.152V-3.3l-1.262.326a2.219,2.219,0,0,1,.346,1.217,2.463,2.463,0,0,1-.9,2.032A3.9,3.9,0,0,1,101.694,1l-.4-.022-.324-.036a.736.736,0,0,0-.339.58q0,.478,1.211.478h1.37a3.113,3.113,0,0,1,2.022.572,2.051,2.051,0,0,1,.7,1.681,2.5,2.5,0,0,1-1.179,2.2,6.113,6.113,0,0,1-3.385.783,4.666,4.666,0,0,1-2.577-.591A1.877,1.877,0,0,1,97.9,5a1.738,1.738,0,0,1,.454-1.225,2.575,2.575,0,0,1,1.334-.7,1.473,1.473,0,0,1-.591-.475,1.132,1.132,0,0,1-.252-.7,1.137,1.137,0,0,1,.267-.772,3.086,3.086,0,0,1,.771-.605,2.167,2.167,0,0,1-1.006-.884A2.7,2.7,0,0,1,98.508-1.8a2.536,2.536,0,0,1,.858-2.051,3.7,3.7,0,0,1,2.451-.725,6.241,6.241,0,0,1,.8.062q.465.062.595.091ZM99.805,4.822a.8.8,0,0,0,.436.717,2.389,2.389,0,0,0,1.222.261,4.309,4.309,0,0,0,1.853-.326.993.993,0,0,0,.67-.891.631.631,0,0,0-.4-.63,3.232,3.232,0,0,0-1.225-.174h-1.139a1.718,1.718,0,0,0-1.013.286A.884.884,0,0,0,99.805,4.822Zm.8-6.594a1.655,1.655,0,0,0,.3,1.043,1.084,1.084,0,0,0,.912.384,1.062,1.062,0,0,0,.908-.384,1.7,1.7,0,0,0,.288-1.043q0-1.464-1.2-1.464T100.606-1.772Z" transform="translate(507.667 600.758)" fill="#191919"/>
    <path id="image_1_Traced_" data-name="image 1 (Traced)" d="M9.958.459A10.618,10.618,0,0,0,1.507,6.272a10.3,10.3,0,0,0-1,3.15,12.192,12.192,0,0,0,0,3.091,10.318,10.318,0,0,0,1,3.15,10.069,10.069,0,0,0,2.023,2.794A9.812,9.812,0,0,0,6.3,20.427a10.4,10.4,0,0,0,3.194.994,13.627,13.627,0,0,0,2.885,0,10.4,10.4,0,0,0,3.194-.994,9.812,9.812,0,0,0,2.775-1.971,10.5,10.5,0,0,0,3.024-5.944,12.191,12.191,0,0,0,0-3.091,10.318,10.318,0,0,0-1-3.15,10.069,10.069,0,0,0-2.023-2.794,9.812,9.812,0,0,0-2.775-1.971A10.355,10.355,0,0,0,12.425.521,15.485,15.485,0,0,0,9.958.459ZM12.124,1.8a9.29,9.29,0,0,1,7.292,5.485,9.447,9.447,0,0,1,.717,2.691,12.005,12.005,0,0,1-.08,2.568,9.284,9.284,0,0,1-8.119,7.618,12.091,12.091,0,0,1-2.568-.081A9.273,9.273,0,0,1,1.752,12a13.086,13.086,0,0,1,0-2.063A9.28,9.28,0,0,1,7.3,2.473,9.411,9.411,0,0,1,9.746,1.8,12.413,12.413,0,0,1,12.124,1.8Zm-1.917.889A8.46,8.46,0,0,0,5.54,4.652,8.7,8.7,0,0,0,4.076,6.285L4,6.405,5.09,6.378c.6-.015,1.251-.039,1.448-.053.345-.026.36-.023.464.08a.322.322,0,0,1,.012.463c-.089.1-.128.113-.62.154-.461.039-.524.053-.513.115.032.185,2.983,8.89,3.005,8.865s.427-1.234.917-2.707l.891-2.679-.639-1.75C9.7,7.9,9.4,7.1,9.385,7.09a3.09,3.09,0,0,0-.5-.071c-.433-.04-.481-.053-.567-.152a.322.322,0,0,1,.013-.462c.1-.1.118-.106.464-.08.863.064,2.548.078,3.409.028s.9-.049,1,.029a.372.372,0,0,1,.112.4c-.037.147-.248.217-.756.249-.255.016-.464.034-.464.04,0,.032,2.972,8.857,2.988,8.873s-.007.123.492-1.538c.238-.793.509-1.693.6-2a4.532,4.532,0,0,0,.095-3.317A9.232,9.232,0,0,0,15.54,7.7a2.316,2.316,0,0,1-.454-1.37,1.155,1.155,0,0,1,.107-.646,1.429,1.429,0,0,1,1.082-.837l.244-.045-.285-.238A8.544,8.544,0,0,0,12.9,2.892,9.224,9.224,0,0,0,10.206,2.686Zm8.064,4.992a6.374,6.374,0,0,1-.2,1.867c-.045.181-.721,2.177-1.5,4.435s-1.42,4.118-1.42,4.133A4.159,4.159,0,0,0,16,17.552,8.3,8.3,0,0,0,18.457,7.421l-.2-.42Zm-15.093.33a8.127,8.127,0,0,0-.523,3.526,8.017,8.017,0,0,0,.4,2.03A8.258,8.258,0,0,0,6.372,17.9a4.405,4.405,0,0,0,.919.517C7.3,18.4,3.384,7.68,3.352,7.649A1.109,1.109,0,0,0,3.178,8.007Zm6.675,7.274c-.677,1.968-1.238,3.6-1.247,3.621s.149.081.366.132a8.017,8.017,0,0,0,3.185.149,4.606,4.606,0,0,0,1.515-.413c-.014-.052-2.519-6.9-2.557-6.993C11.093,11.726,10.712,12.782,9.853,15.281Z" transform="translate(481.198 586.477)" fill="#191919" fill-rule="evenodd"/>
  </g>
</svg>
