<svg xmlns="http://www.w3.org/2000/svg" width="96" height="18" viewBox="0 0 96 18">
  <g id="Group_102912" data-name="Group 102912" transform="translate(-441 -443)">
    <g id="Group_102775" data-name="Group 102775" transform="translate(441 443)">
      <rect id="Rectangle_51473" data-name="Rectangle 51473" width="17.898" height="18" transform="translate(0)" fill="none"/>
      <g id="Path_171163" data-name="Path 171163" transform="translate(-100.81 -40.674)" fill="#fdb82c">
        <path d="M 113.3279800415039 56.18710708618164 C 113.2601547241211 56.18710708618164 113.1947250366211 56.16546630859375 113.1387405395508 56.12453842163086 L 109.7785797119141 53.66921615600586 L 109.4836196899414 53.45368576049805 L 109.1886367797852 53.66919708251953 L 105.8275146484375 56.12473678588867 C 105.7717208862305 56.16537857055664 105.7060852050781 56.18707656860352 105.6382522583008 56.18707656860352 C 105.5703125 56.18707656860352 105.5045394897461 56.16526794433594 105.4480361938477 56.12400817871094 C 105.3335494995117 56.04031753540039 105.286262512207 55.89233779907227 105.3305511474609 55.75590896606445 L 106.6139144897461 51.78190612792969 L 106.7250366210938 51.43782806396484 L 106.4330749511719 51.22451782226562 L 103.0728225708008 48.76953887939453 C 102.9575500488281 48.68535614013672 102.9098739624023 48.53691864013672 102.9541015625 48.40010833740234 C 102.9978332519531 48.26461791992188 103.1213607788086 48.17374801635742 103.2615737915039 48.17374801635742 L 107.4156112670898 48.17374801635742 L 107.7794647216797 48.17374801635742 L 107.8913726806641 47.82753753662109 L 109.1757507324219 43.85426712036133 C 109.2192916870117 43.71875762939453 109.3424758911133 43.62827682495117 109.4825210571289 43.62827682495117 C 109.6211929321289 43.62827682495117 109.7431488037109 43.71599578857422 109.7889404296875 43.84733963012695 L 109.7911834716797 43.85430526733398 L 111.0748748779297 47.82757568359375 L 111.1867446899414 48.17385864257812 L 111.550651550293 48.17385864257812 L 115.7046661376953 48.17385864257812 C 115.8451461791992 48.17385864257812 115.9689025878906 48.26485824584961 116.0126037597656 48.40029525756836 L 116.9499816894531 48.05443572998047 L 116.0127029418945 48.40061569213867 C 116.0568923950195 48.53713607788086 116.0092010498047 48.68535614013672 115.89404296875 48.76946640014648 L 112.5331268310547 51.22470855712891 L 112.241096496582 51.43803787231445 L 112.3522796630859 51.78216552734375 L 113.6359710693359 55.75544738769531 C 113.6802597045898 55.89216613769531 113.6324615478516 56.04025650024414 113.5171508789062 56.12431716918945 C 113.4607467651367 56.16566848754883 113.3957138061523 56.18710708618164 113.3279800415039 56.18710708618164 Z" stroke="none"/>
        <path d="M 109.4834136962891 44.528076171875 L 108.1433029174805 48.67374801635742 L 103.7892761230469 48.67374801635742 L 107.3119506835938 51.24739837646484 L 105.9705963134766 55.40098190307617 L 109.4836502075195 52.83444595336914 L 112.9959945678711 55.40095901489258 L 111.6541366577148 51.24762725830078 L 115.1772842407227 48.67385864257812 L 110.8228454589844 48.67385864257812 L 109.4834136962891 44.528076171875 M 109.4825210571289 43.12827682495117 L 109.4831695556641 43.12827682495117 C 109.8411712646484 43.12827682495117 110.1560897827148 43.35812759399414 110.266960144043 43.70024871826172 L 110.266960144043 43.70058822631836 L 111.550651550293 47.67385864257812 L 115.7046661376953 47.67385864257812 C 116.0623016357422 47.67385864257812 116.3779296875 47.9042854309082 116.4884414672852 48.24674606323242 L 116.4883804321289 48.24662780761719 C 116.599250793457 48.58907699584961 116.4787445068359 48.96160888671875 116.1889114379883 49.17324829101562 L 112.8280639648438 51.62844848632812 L 114.1117553710938 55.60172653198242 C 114.222900390625 55.9448356628418 114.1015319824219 56.31704711914062 113.8117065429688 56.52834701538086 C 113.5223007202148 56.74052047729492 113.1331787109375 56.73992156982422 112.8435897827148 56.52811813354492 L 109.4835968017578 54.07292556762695 L 106.1224746704102 56.52846527099609 C 105.832405090332 56.73978424072266 105.444221496582 56.74033355712891 105.1531600952148 56.52779769897461 C 104.863639831543 56.31616592407227 104.7438049316406 55.94397735595703 104.85498046875 55.60151672363281 L 106.1381149291992 51.62824630737305 L 102.7778625488281 49.17326736450195 C 102.4880294799805 48.96161651611328 102.3675231933594 48.58909606933594 102.4783554077148 48.24629592895508 C 102.5888748168945 47.90384674072266 102.9039611816406 47.67374801635742 103.2615737915039 47.67374801635742 L 107.4156112670898 47.67374801635742 L 108.6999969482422 43.70047760009766 C 108.809814453125 43.35869598388672 109.1245498657227 43.12827682495117 109.4825210571289 43.12827682495117 Z" stroke="none" fill="#fdb82c"/>
      </g>
    </g>
    <g id="Group_102776" data-name="Group 102776" transform="translate(460.525 443)">
      <rect id="Rectangle_51473-2" data-name="Rectangle 51473" width="17.898" height="18" fill="none"/>
      <g id="Path_171163-2" data-name="Path 171163" transform="translate(-100.81 -40.674)" fill="#fdb82c">
        <path d="M 113.3279800415039 56.18710708618164 C 113.2601547241211 56.18710708618164 113.1947250366211 56.16546630859375 113.1387405395508 56.12453842163086 L 109.7785797119141 53.66921615600586 L 109.4836196899414 53.45368576049805 L 109.1886367797852 53.66919708251953 L 105.8275146484375 56.12473678588867 C 105.7717208862305 56.16537857055664 105.7060852050781 56.18707656860352 105.6382522583008 56.18707656860352 C 105.5703125 56.18707656860352 105.5045394897461 56.16526794433594 105.4480361938477 56.12400817871094 C 105.3335494995117 56.04031753540039 105.286262512207 55.89233779907227 105.3305511474609 55.75590896606445 L 106.6139144897461 51.78190612792969 L 106.7250366210938 51.43782806396484 L 106.4330749511719 51.22451782226562 L 103.0728225708008 48.76953887939453 C 102.9575500488281 48.68535614013672 102.9098739624023 48.53691864013672 102.9541015625 48.40010833740234 C 102.9978332519531 48.26461791992188 103.1213607788086 48.17374801635742 103.2615737915039 48.17374801635742 L 107.4156112670898 48.17374801635742 L 107.7794647216797 48.17374801635742 L 107.8913726806641 47.82753753662109 L 109.1757507324219 43.85426712036133 C 109.2192916870117 43.71875762939453 109.3424758911133 43.62827682495117 109.4825210571289 43.62827682495117 C 109.6211929321289 43.62827682495117 109.7431488037109 43.71599578857422 109.7889404296875 43.84733963012695 L 109.7911834716797 43.85430526733398 L 111.0748748779297 47.82757568359375 L 111.1867446899414 48.17385864257812 L 111.550651550293 48.17385864257812 L 115.7046661376953 48.17385864257812 C 115.8451461791992 48.17385864257812 115.9689025878906 48.26485824584961 116.0126037597656 48.40029525756836 L 116.9499816894531 48.05443572998047 L 116.0127029418945 48.40061569213867 C 116.0568923950195 48.53713607788086 116.0092010498047 48.68535614013672 115.89404296875 48.76946640014648 L 112.5331268310547 51.22470855712891 L 112.241096496582 51.43803787231445 L 112.3522796630859 51.78216552734375 L 113.6359710693359 55.75544738769531 C 113.6802597045898 55.89216613769531 113.6324615478516 56.04025650024414 113.5171508789062 56.12431716918945 C 113.4607467651367 56.16566848754883 113.3957138061523 56.18710708618164 113.3279800415039 56.18710708618164 Z" stroke="none"/>
        <path d="M 109.4834136962891 44.528076171875 L 108.1433029174805 48.67374801635742 L 103.7892761230469 48.67374801635742 L 107.3119506835938 51.24739837646484 L 105.9705963134766 55.40098190307617 L 109.4836502075195 52.83444595336914 L 112.9959945678711 55.40095901489258 L 111.6541366577148 51.24762725830078 L 115.1772842407227 48.67385864257812 L 110.8228454589844 48.67385864257812 L 109.4834136962891 44.528076171875 M 109.4825210571289 43.12827682495117 L 109.4831695556641 43.12827682495117 C 109.8411712646484 43.12827682495117 110.1560897827148 43.35812759399414 110.266960144043 43.70024871826172 L 110.266960144043 43.70058822631836 L 111.550651550293 47.67385864257812 L 115.7046661376953 47.67385864257812 C 116.0623016357422 47.67385864257812 116.3779296875 47.9042854309082 116.4884414672852 48.24674606323242 L 116.4883804321289 48.24662780761719 C 116.599250793457 48.58907699584961 116.4787445068359 48.96160888671875 116.1889114379883 49.17324829101562 L 112.8280639648438 51.62844848632812 L 114.1117553710938 55.60172653198242 C 114.222900390625 55.9448356628418 114.1015319824219 56.31704711914062 113.8117065429688 56.52834701538086 C 113.5223007202148 56.74052047729492 113.1331787109375 56.73992156982422 112.8435897827148 56.52811813354492 L 109.4835968017578 54.07292556762695 L 106.1224746704102 56.52846527099609 C 105.832405090332 56.73978424072266 105.444221496582 56.74033355712891 105.1531600952148 56.52779769897461 C 104.863639831543 56.31616592407227 104.7438049316406 55.94397735595703 104.85498046875 55.60151672363281 L 106.1381149291992 51.62824630737305 L 102.7778625488281 49.17326736450195 C 102.4880294799805 48.96161651611328 102.3675231933594 48.58909606933594 102.4783554077148 48.24629592895508 C 102.5888748168945 47.90384674072266 102.9039611816406 47.67374801635742 103.2615737915039 47.67374801635742 L 107.4156112670898 47.67374801635742 L 108.6999969482422 43.70047760009766 C 108.809814453125 43.35869598388672 109.1245498657227 43.12827682495117 109.4825210571289 43.12827682495117 Z" stroke="none" fill="#fdb82c"/>
      </g>
    </g>
    <g id="Group_102777" data-name="Group 102777" transform="translate(480.051 443)">
      <rect id="Rectangle_51473-3" data-name="Rectangle 51473" width="17.898" height="18" transform="translate(0)" fill="none"/>
      <g id="Path_171163-3" data-name="Path 171163" transform="translate(-100.81 -40.674)" fill="#fdb82c">
        <path d="M 113.3279800415039 56.18710708618164 C 113.2601547241211 56.18710708618164 113.1947250366211 56.16546630859375 113.1387405395508 56.12453842163086 L 109.7785797119141 53.66921615600586 L 109.4836196899414 53.45368576049805 L 109.1886367797852 53.66919708251953 L 105.8275146484375 56.12473678588867 C 105.7717208862305 56.16537857055664 105.7060852050781 56.18707656860352 105.6382522583008 56.18707656860352 C 105.5703125 56.18707656860352 105.5045394897461 56.16526794433594 105.4480361938477 56.12400817871094 C 105.3335494995117 56.04031753540039 105.286262512207 55.89233779907227 105.3305511474609 55.75590896606445 L 106.6139144897461 51.78190612792969 L 106.7250366210938 51.43782806396484 L 106.4330749511719 51.22451782226562 L 103.0728225708008 48.76953887939453 C 102.9575500488281 48.68535614013672 102.9098739624023 48.53691864013672 102.9541015625 48.40010833740234 C 102.9978332519531 48.26461791992188 103.1213607788086 48.17374801635742 103.2615737915039 48.17374801635742 L 107.4156112670898 48.17374801635742 L 107.7794647216797 48.17374801635742 L 107.8913726806641 47.82753753662109 L 109.1757507324219 43.85426712036133 C 109.2192916870117 43.71875762939453 109.3424758911133 43.62827682495117 109.4825210571289 43.62827682495117 C 109.6211929321289 43.62827682495117 109.7431488037109 43.71599578857422 109.7889404296875 43.84733963012695 L 109.7911834716797 43.85430526733398 L 111.0748748779297 47.82757568359375 L 111.1867446899414 48.17385864257812 L 111.550651550293 48.17385864257812 L 115.7046661376953 48.17385864257812 C 115.8451461791992 48.17385864257812 115.9689025878906 48.26485824584961 116.0126037597656 48.40029525756836 L 116.9499816894531 48.05443572998047 L 116.0127029418945 48.40061569213867 C 116.0568923950195 48.53713607788086 116.0092010498047 48.68535614013672 115.89404296875 48.76946640014648 L 112.5331268310547 51.22470855712891 L 112.241096496582 51.43803787231445 L 112.3522796630859 51.78216552734375 L 113.6359710693359 55.75544738769531 C 113.6802597045898 55.89216613769531 113.6324615478516 56.04025650024414 113.5171508789062 56.12431716918945 C 113.4607467651367 56.16566848754883 113.3957138061523 56.18710708618164 113.3279800415039 56.18710708618164 Z" stroke="none"/>
        <path d="M 109.4834136962891 44.528076171875 L 108.1433029174805 48.67374801635742 L 103.7892761230469 48.67374801635742 L 107.3119506835938 51.24739837646484 L 105.9705963134766 55.40098190307617 L 109.4836502075195 52.83444595336914 L 112.9959945678711 55.40095901489258 L 111.6541366577148 51.24762725830078 L 115.1772842407227 48.67385864257812 L 110.8228454589844 48.67385864257812 L 109.4834136962891 44.528076171875 M 109.4825210571289 43.12827682495117 L 109.4831695556641 43.12827682495117 C 109.8411712646484 43.12827682495117 110.1560897827148 43.35812759399414 110.266960144043 43.70024871826172 L 110.266960144043 43.70058822631836 L 111.550651550293 47.67385864257812 L 115.7046661376953 47.67385864257812 C 116.0623016357422 47.67385864257812 116.3779296875 47.9042854309082 116.4884414672852 48.24674606323242 L 116.4883804321289 48.24662780761719 C 116.599250793457 48.58907699584961 116.4787445068359 48.96160888671875 116.1889114379883 49.17324829101562 L 112.8280639648438 51.62844848632812 L 114.1117553710938 55.60172653198242 C 114.222900390625 55.9448356628418 114.1015319824219 56.31704711914062 113.8117065429688 56.52834701538086 C 113.5223007202148 56.74052047729492 113.1331787109375 56.73992156982422 112.8435897827148 56.52811813354492 L 109.4835968017578 54.07292556762695 L 106.1224746704102 56.52846527099609 C 105.832405090332 56.73978424072266 105.444221496582 56.74033355712891 105.1531600952148 56.52779769897461 C 104.863639831543 56.31616592407227 104.7438049316406 55.94397735595703 104.85498046875 55.60151672363281 L 106.1381149291992 51.62824630737305 L 102.7778625488281 49.17326736450195 C 102.4880294799805 48.96161651611328 102.3675231933594 48.58909606933594 102.4783554077148 48.24629592895508 C 102.5888748168945 47.90384674072266 102.9039611816406 47.67374801635742 103.2615737915039 47.67374801635742 L 107.4156112670898 47.67374801635742 L 108.6999969482422 43.70047760009766 C 108.809814453125 43.35869598388672 109.1245498657227 43.12827682495117 109.4825210571289 43.12827682495117 Z" stroke="none" fill="#fdb82c"/>
      </g>
    </g>
    <g id="Group_102778" data-name="Group 102778" transform="translate(499.576 443)">
      <rect id="Rectangle_51473-4" data-name="Rectangle 51473" width="17.898" height="18" transform="translate(0)" fill="none"/>
      <g id="Path_171163-4" data-name="Path 171163" transform="translate(-100.81 -40.674)" fill="#fdb82c">
        <path d="M 113.3279800415039 56.18710708618164 C 113.2601547241211 56.18710708618164 113.1947250366211 56.16546630859375 113.1387405395508 56.12453842163086 L 109.7785797119141 53.66921615600586 L 109.4836196899414 53.45368576049805 L 109.1886367797852 53.66919708251953 L 105.8275146484375 56.12473678588867 C 105.7717208862305 56.16537857055664 105.7060852050781 56.18707656860352 105.6382522583008 56.18707656860352 C 105.5703125 56.18707656860352 105.5045394897461 56.16526794433594 105.4480361938477 56.12400817871094 C 105.3335494995117 56.04031753540039 105.286262512207 55.89233779907227 105.3305511474609 55.75590896606445 L 106.6139144897461 51.78190612792969 L 106.7250366210938 51.43782806396484 L 106.4330749511719 51.22451782226562 L 103.0728225708008 48.76953887939453 C 102.9575500488281 48.68535614013672 102.9098739624023 48.53691864013672 102.9541015625 48.40010833740234 C 102.9978332519531 48.26461791992188 103.1213607788086 48.17374801635742 103.2615737915039 48.17374801635742 L 107.4156112670898 48.17374801635742 L 107.7794647216797 48.17374801635742 L 107.8913726806641 47.82753753662109 L 109.1757507324219 43.85426712036133 C 109.2192916870117 43.71875762939453 109.3424758911133 43.62827682495117 109.4825210571289 43.62827682495117 C 109.6211929321289 43.62827682495117 109.7431488037109 43.71599578857422 109.7889404296875 43.84733963012695 L 109.7911834716797 43.85430526733398 L 111.0748748779297 47.82757568359375 L 111.1867446899414 48.17385864257812 L 111.550651550293 48.17385864257812 L 115.7046661376953 48.17385864257812 C 115.8451461791992 48.17385864257812 115.9689025878906 48.26485824584961 116.0126037597656 48.40029525756836 L 116.9499816894531 48.05443572998047 L 116.0127029418945 48.40061569213867 C 116.0568923950195 48.53713607788086 116.0092010498047 48.68535614013672 115.89404296875 48.76946640014648 L 112.5331268310547 51.22470855712891 L 112.241096496582 51.43803787231445 L 112.3522796630859 51.78216552734375 L 113.6359710693359 55.75544738769531 C 113.6802597045898 55.89216613769531 113.6324615478516 56.04025650024414 113.5171508789062 56.12431716918945 C 113.4607467651367 56.16566848754883 113.3957138061523 56.18710708618164 113.3279800415039 56.18710708618164 Z" stroke="none"/>
        <path d="M 109.4834136962891 44.528076171875 L 108.1433029174805 48.67374801635742 L 103.7892761230469 48.67374801635742 L 107.3119506835938 51.24739837646484 L 105.9705963134766 55.40098190307617 L 109.4836502075195 52.83444595336914 L 112.9959945678711 55.40095901489258 L 111.6541366577148 51.24762725830078 L 115.1772842407227 48.67385864257812 L 110.8228454589844 48.67385864257812 L 109.4834136962891 44.528076171875 M 109.4825210571289 43.12827682495117 L 109.4831695556641 43.12827682495117 C 109.8411712646484 43.12827682495117 110.1560897827148 43.35812759399414 110.266960144043 43.70024871826172 L 110.266960144043 43.70058822631836 L 111.550651550293 47.67385864257812 L 115.7046661376953 47.67385864257812 C 116.0623016357422 47.67385864257812 116.3779296875 47.9042854309082 116.4884414672852 48.24674606323242 L 116.4883804321289 48.24662780761719 C 116.599250793457 48.58907699584961 116.4787445068359 48.96160888671875 116.1889114379883 49.17324829101562 L 112.8280639648438 51.62844848632812 L 114.1117553710938 55.60172653198242 C 114.222900390625 55.9448356628418 114.1015319824219 56.31704711914062 113.8117065429688 56.52834701538086 C 113.5223007202148 56.74052047729492 113.1331787109375 56.73992156982422 112.8435897827148 56.52811813354492 L 109.4835968017578 54.07292556762695 L 106.1224746704102 56.52846527099609 C 105.832405090332 56.73978424072266 105.444221496582 56.74033355712891 105.1531600952148 56.52779769897461 C 104.863639831543 56.31616592407227 104.7438049316406 55.94397735595703 104.85498046875 55.60151672363281 L 106.1381149291992 51.62824630737305 L 102.7778625488281 49.17326736450195 C 102.4880294799805 48.96161651611328 102.3675231933594 48.58909606933594 102.4783554077148 48.24629592895508 C 102.5888748168945 47.90384674072266 102.9039611816406 47.67374801635742 103.2615737915039 47.67374801635742 L 107.4156112670898 47.67374801635742 L 108.6999969482422 43.70047760009766 C 108.809814453125 43.35869598388672 109.1245498657227 43.12827682495117 109.4825210571289 43.12827682495117 Z" stroke="none" fill="#fdb82c"/>
      </g>
    </g>
    <g id="Group_102779" data-name="Group 102779" transform="translate(519.102 443)">
      <rect id="Rectangle_51473-5" data-name="Rectangle 51473" width="17.898" height="18" transform="translate(0)" fill="none"/>
      <path id="Path_171163-5" data-name="Path 171163" d="M116.488,48.247a.823.823,0,0,0-.784-.573h-4.154L110.267,43.7h0a.823.823,0,0,0-.784-.572h0a.821.821,0,0,0-.783.572l-1.284,3.973h-4.154a.83.83,0,0,0-.484,1.5l3.36,2.455L104.855,55.6a.828.828,0,0,0,.3.926.818.818,0,0,0,.969,0l3.361-2.456,3.36,2.455a.817.817,0,0,0,.968,0,.828.828,0,0,0,.3-.927l-1.284-3.973,3.361-2.455a.829.829,0,0,0,.3-.927Z" transform="translate(-100.81 -40.674)" fill="#fdb82c"/>
    </g>
  </g>
</svg>
