<svg xmlns="http://www.w3.org/2000/svg" xmlns:xlink="http://www.w3.org/1999/xlink" width="108" height="54" viewBox="0 0 108 54">
  <defs>
    <clipPath id="clip-path">
      <rect id="Rectangle_52851" data-name="Rectangle 52851" width="108" height="54" transform="translate(990 7023)" fill="#fff" stroke="#707070" stroke-width="1"/>
    </clipPath>
  </defs>
  <g id="yahoo_finance" transform="translate(-990 -7023)" opacity="0.44" clip-path="url(#clip-path)">
    <g id="Group_106174" data-name="Group 106174" transform="translate(990 7031.909)">
      <g id="Group_106173" data-name="Group 106173" transform="translate(0 0)">
        <g id="Group_106171" data-name="Group 106171">
          <path id="Path_171628" data-name="Path 171628" d="M-565.124,140.1a1.537,1.537,0,0,1,1.421,1.5,4.994,4.994,0,0,1-.167,1c-.585,2.425-2.758,11.118-3.594,16.886l-.836-.836,2.675-17.722Z" transform="translate(671.706 -139.845)" fill="#323a45"/>
          <path id="Path_171629" data-name="Path 171629" d="M-597.389,141.55a7.154,7.154,0,0,1-3.261,0l1.755,1.755Z" transform="translate(649.973 -138.87)" fill="#323a45"/>
          <path id="Path_171630" data-name="Path 171630" d="M-608.95,141.55a7.154,7.154,0,0,0,3.261,0l-1.755,1.755Z" transform="translate(644.396 -138.87)" fill="#323a45"/>
          <path id="Path_171631" data-name="Path 171631" d="M-614.076,141.5c2.508,6.437,6.52,16.05,8.527,19.812l-2.926-.919-7.273-18.144Z" transform="translate(639.828 -138.904)" fill="#323a45"/>
          <path id="Path_171632" data-name="Path 171632" d="M-616.15,141.5a3.478,3.478,0,0,0,2.257,0l-1.672,1Z" transform="translate(639.559 -138.904)" fill="#323a45"/>
          <path id="Path_171633" data-name="Path 171633" d="M-615.014,141.95l7.439,18.144a2.659,2.659,0,0,1-1.086.919c-2.173-5.517-4.428-11.034-6.436-16.468l-1-1.672Z" transform="translate(639.593 -138.602)" fill="#323a45"/>
          <path id="Path_171634" data-name="Path 171634" d="M-618.376,161.012l-2.173-.756,7.69-18.055.836-.251v2.675c-1.171,3.427-4.18,11.034-6.353,16.384Z" transform="translate(636.602 -138.602)" fill="#323a45"/>
          <path id="Path_171635" data-name="Path 171635" d="M-620.35,139.95l.756,1.672,1.836-.836.756-.756a8.957,8.957,0,0,1-3.348-.083Z" transform="translate(636.737 -139.946)" fill="#323a45"/>
          <path id="Path_171636" data-name="Path 171636" d="M-622.643,154.328l-1.254.5-.756-1.421,7.858-12.539.585-.167a6.1,6.1,0,0,0,2.173-.756c-1.337,1.672-5.852,9.53-8.61,14.378Z" transform="translate(633.848 -139.946)" fill="#323a45"/>
          <path id="Path_171637" data-name="Path 171637" d="M-624.145,154.161l.335-.335,7.776-13.124-1.17-.756c-.919,1.755-4.428,7.356-6.6,11.034l-1.086,2.007Z" transform="translate(633.681 -139.946)" fill="#323a45"/>
          <path id="Path_171638" data-name="Path 171638" d="M-627.561,139.95c1.755,3.009,4.347,7.356,6.6,11.034v2.844l-.5.5-7.691-13.71Z" transform="translate(630.825 -139.946)" fill="#323a45"/>
          <path id="Path_171639" data-name="Path 171639" d="M-628.143,140.786l1.254-.836a6.163,6.163,0,0,1-3.26,0l.5.585Z" transform="translate(630.153 -139.946)" fill="#323a45"/>
          <path id="Path_171640" data-name="Path 171640" d="M-620.285,153.828l-.585.836-.756-.335c-1.5-2.508-5.768-10.282-8.527-14.378a5.123,5.123,0,0,0,2.173.756Z" transform="translate(630.153 -139.946)" fill="#323a45"/>
          <path id="Path_171641" data-name="Path 171641" d="M-622.393,159.4l-2.257-1.086.167-9.363.5-.756,1.421.5Z" transform="translate(633.848 -134.403)" fill="#323a45"/>
          <path id="Path_171642" data-name="Path 171642" d="M-623.611,158.615l-1.589.756.167-10.616,1.421-.5Z" transform="translate(633.478 -134.37)" fill="#323a45"/>
          <path id="Path_171643" data-name="Path 171643" d="M-621.2,161.312c2.758-5.6,5.767-13.124,8.442-19.812l1.171.669-7.523,18.39-1.5.5Z" transform="translate(636.166 -138.904)" fill="#323a45"/>
          <path id="Path_171644" data-name="Path 171644" d="M-610.68,152.783l2.34,1a6.145,6.145,0,0,0-3.261,0l.418-1.086Z" transform="translate(642.615 -131.38)" fill="#323a45"/>
          <path id="Path_171645" data-name="Path 171645" d="M-618.5,149.769l1.589-.669q3.511.125,7.02,0l1.672.756-1.5.335h-7.607Z" transform="translate(637.98 -133.799)" fill="#323a45"/>
          <path id="Path_171646" data-name="Path 171646" d="M-617.414,150.194l-1.087-.669q5.141-.125,10.282,0l-1.087.669c-2.758-.083-5.433-.083-8.109,0Z" transform="translate(637.98 -133.555)" fill="#323a45"/>
          <path id="Path_171647" data-name="Path 171647" d="M-606.06,161.277l-2.34-.756V142.8l.668-.335,1.672-.919a194.046,194.046,0,0,0,0,19.727Z" transform="translate(644.766 -138.87)" fill="#323a45"/>
          <path id="Path_171648" data-name="Path 171648" d="M-607.328,160.358v.5l-1.672.5q.376-9.906,0-19.812l1.672.919Z" transform="translate(644.362 -138.871)" fill="#323a45"/>
          <path id="Path_171649" data-name="Path 171649" d="M-600.7,161.277l2.34-.756V142.8l-.669-.335-1.672-.919a194.241,194.241,0,0,1,0,19.727Z" transform="translate(649.938 -138.87)" fill="#323a45"/>
          <path id="Path_171650" data-name="Path 171650" d="M-608,147.635l1.421-.585q5.517.125,11.034,0l1.421.585-1.755.418h-10.7Z" transform="translate(645.033 -135.175)" fill="#323a45"/>
          <path id="Path_171651" data-name="Path 171651" d="M-587.854,141.5c-6.437,0-9.7,4.012-9.7,9.948,0,7.356,4.848,9.948,9.612,9.948,5.6,0,9.612-3.176,9.612-9.948,0-6.437-3.762-9.948-9.53-9.948Zm-.251,1h.167c4.263,0,7.44,2.926,7.44,9.028s-3.176,9.028-7.44,9.028c-4.681,0-7.439-3.348-7.439-8.945.083-6.52,3.511-9.028,7.273-9.112Z" transform="translate(652.054 -138.904)" fill="#323a45"/>
          <path id="Path_171652" data-name="Path 171652" d="M-587.45,141.35c-7.02,0-10.7,4.428-10.7,10.2,0,6.264,4.012,10.114,10.616,10.114,7.188,0,10.7-4.347,10.7-10.031C-576.834,145.195-581.014,141.35-587.45,141.35Zm0,.669c5.517,0,9.2,3.348,9.2,9.53,0,6.437-3.845,9.53-9.278,9.53-4.514,0-9.278-2.425-9.278-9.53,0-5.6,3.092-9.53,9.362-9.53Z" transform="translate(651.651 -139.005)" fill="#323a45"/>
          <path id="Path_171653" data-name="Path 171653" d="M-572.866,140.9c-6.6,0-11.034,3.678-11.034,10.95,0,7.105,4.18,11.034,11.118,11.034,5.266,0,10.95-2.675,10.95-10.95-.083-8.856-6.353-11.034-11.034-11.034Zm-.083.836c5.266,0,9.111,3.176,9.111,10.2,0,7.606-4.681,10.114-9.111,10.114-4.682,0-9.028-2.758-9.028-10.2C-581.893,143.993-577.128,141.736-572.949,141.736Z" transform="translate(661.226 -139.307)" fill="#323a45"/>
          <path id="Path_171654" data-name="Path 171654" d="M-572.412,140.65c-6.938,0-12.288,3.929-12.288,11.285,0,6.019,3.511,11.368,12.371,11.368,7.44,0,12.288-4.1,12.288-11.285C-560.04,145.331-564.555,140.65-572.412,140.65Zm.083.756c4.6,0,10.7,2.09,10.7,10.784,0,8.024-5.6,10.7-10.7,10.7-6.687,0-10.784-3.845-10.784-10.784,0-7.109,4.352-10.7,10.784-10.7Z" transform="translate(660.688 -139.475)" fill="#323a45"/>
          <path id="Path_171655" data-name="Path 171655" d="M-569.6,154.725a1.555,1.555,0,0,1,.423-1.189,1.554,1.554,0,0,1,1.166-.483,1.57,1.57,0,0,1,1.208.367,1.57,1.57,0,0,1,.547,1.137,1.425,1.425,0,0,1-.38,1.146,1.424,1.424,0,0,1-1.124.442c-1.087.083-1.836-.418-1.836-1.421Z" transform="translate(670.831 -131.145)" fill="#323a45"/>
          <path id="Path_171656" data-name="Path 171656" d="M-568.6,159.36c.836-5.684,1.254-11.62,1.755-17.637a1.512,1.512,0,0,1,.407-1.2,1.512,1.512,0,0,1,1.182-.468h.335l-.251,1.421-2.841,17.637Z" transform="translate(671.504 -139.879)" fill="#323a45"/>
          <g id="Group_106169" data-name="Group 106169" transform="translate(8.279 12.46)">
            <path id="Path_171657" data-name="Path 171657" d="M-625.2,155.371l1.589-1.171,1.589,1.171a9.48,9.48,0,0,0-1.589-.167,10.976,10.976,0,0,0-1.589.167Z" transform="translate(625.2 -142.832)" fill="#323a45"/>
            <path id="Path_171658" data-name="Path 171658" d="M-621.2,153.719l2.173-.919a2.791,2.791,0,0,0,1.086.919,7.066,7.066,0,0,0-3.26,0Z" transform="translate(627.887 -143.772)" fill="#323a45"/>
            <path id="Path_171659" data-name="Path 171659" d="M-608.95,153.719a7.158,7.158,0,0,1,3.261,0l-1.672-.919Z" transform="translate(636.117 -143.772)" fill="#323a45"/>
            <path id="Path_171660" data-name="Path 171660" d="M-606.579,148.156-608,147.4q6.9.125,13.793,0l-1.421.756c-3.594-.083-7.273,0-10.95,0Z" transform="translate(636.755 -147.4)" fill="#323a45"/>
          </g>
          <g id="Group_106170" data-name="Group 106170" transform="translate(49.323 0.255)">
            <path id="Path_171661" data-name="Path 171661" d="M-599.7,160.358v.5l1.672.5q-.376-9.906,0-19.812l-1.672.919Z" transform="translate(601.288 -139.126)" fill="#323a45"/>
            <path id="Path_171662" data-name="Path 171662" d="M-597.389,153.719a7.158,7.158,0,0,0-3.26,0l1.672-.919Z" transform="translate(600.65 -131.568)" fill="#323a45"/>
            <path id="Path_171663" data-name="Path 171663" d="M-567.9,151.25l-.756.669a2.1,2.1,0,0,1,1.254.167Z" transform="translate(622.148 -132.609)" fill="#323a45"/>
            <ellipse id="Ellipse_9" data-name="Ellipse 9" cx="1.589" cy="1.421" rx="1.589" ry="1.421" transform="translate(55.338 0)" fill="#323a45"/>
          </g>
        </g>
        <g id="Group_106172" data-name="Group 106172" transform="translate(29.645 28.149)">
          <path id="Path_171664" data-name="Path 171664" d="M23.384,17.5v.669H20.036v2.34h3.009v.669H20.036v3.511H18.2V17.5Z" transform="translate(-18.2 -16.823)" fill="#323a45"/>
          <path id="Path_171665" data-name="Path 171665" d="M22.3,17.5h1.836v7.188H22.3Z" transform="translate(-15.445 -16.823)" fill="#323a45"/>
          <path id="Path_171666" data-name="Path 171666" d="M24.467,17.5h1l4.18,4.514V17.5h1.171v7.356h-.836L25.471,19.84v5.016H24.3V17.5Z" transform="translate(-14.102 -16.823)" fill="#323a45"/>
          <path id="Path_171667" data-name="Path 171667" d="M33.147,17.4,36.5,24.756H34.659l-.836-2.007h-2.85l-1,2.007H28.8L32.311,17.4Zm-1.836,4.681h2.173l-1-2.34Z" transform="translate(-11.078 -16.89)" fill="#323a45"/>
          <path id="Path_171668" data-name="Path 171668" d="M33.9,17.5h1.171l4.18,4.514V17.5h1.171v7.356h-.836L35.071,19.84v5.016H33.9Z" transform="translate(-7.653 -16.823)" fill="#323a45"/>
          <path id="Path_171669" data-name="Path 171669" d="M40.636,21.28a2.484,2.484,0,0,0,.167,1.171,3.655,3.655,0,0,0,.5.836,1.421,1.421,0,0,0,.836.5c.335,0,.669.167,1,.167s.5,0,.669-.167.5-.167.669-.335l.5-.5a2.308,2.308,0,0,0,.5-.669l.669.5a2.308,2.308,0,0,1-.5.669,3.647,3.647,0,0,1-.836.669c-.335.167-.5.335-.836.5a2.12,2.12,0,0,1-1,.167,4.946,4.946,0,0,1-1.672-.335,3.641,3.641,0,0,1-1.337-.836,3,3,0,0,1-.836-1.171,4.882,4.882,0,0,1-.335-1.5,4.882,4.882,0,0,1,.335-1.5,3,3,0,0,1,.836-1.171,3.641,3.641,0,0,1,1.337-.836,4.946,4.946,0,0,1,1.672-.335,2.845,2.845,0,0,1,1.171.167c.335.167.669.167,1,.335a2.935,2.935,0,0,1,.836.669c.167.167.335.5.669.836l-.669.5a2.308,2.308,0,0,1-.5-.669l-.5-.5a1.637,1.637,0,0,1-1.171.167c-.167,0-.5-.167-.669-.167a2.12,2.12,0,0,0-1,.167c-.335.167-.5.335-.836.5a3.655,3.655,0,0,0-.5.836,3.682,3.682,0,0,0-.167,1.339Z" transform="translate(-4.36 -17.092)" fill="#323a45"/>
          <path id="Path_171670" data-name="Path 171670" d="M49.55,17.5v.669H45.872v2.34h3.009v.669H45.872V24.02H49.55v.669H44.2V17.5Z" transform="translate(-0.732 -16.823)" fill="#323a45"/>
        </g>
      </g>
    </g>
  </g>
</svg>
